<svg width="48" height="48" viewBox="0 0 48 48" fill="none" xmlns="http://www.w3.org/2000/svg">
<path fill-rule="evenodd" clip-rule="evenodd" d="M4.11259 24.7955C3.67325 24.3562 3.67325 23.6438 4.11259 23.2045L11.5372 15.7799C11.9765 15.3405 12.6889 15.3405 13.1282 15.7799L20.5528 23.2045C20.9922 23.6438 20.9922 24.3562 20.5528 24.7955L13.1282 32.2201C12.6889 32.6595 11.9765 32.6595 11.5372 32.2201L4.11259 24.7955ZM6.49907 24L12.3327 29.8336L18.1663 24L12.3327 18.1664L6.49907 24Z" fill="#3C42B3"/>
<path fill-rule="evenodd" clip-rule="evenodd" d="M15.7798 13.1282C15.3405 12.6889 15.3405 11.9765 15.7798 11.5372L23.2045 4.11259C23.6438 3.67325 24.3561 3.67325 24.7954 4.11259L32.2201 11.5372C32.6594 11.9765 32.6594 12.6889 32.2201 13.1282L24.7954 20.5528C24.3561 20.9922 23.6438 20.9922 23.2045 20.5528L15.7798 13.1282ZM18.1663 12.3327L24 18.1663L29.8336 12.3327L24 6.49907L18.1663 12.3327Z" fill="#3C42B3"/>
<path fill-rule="evenodd" clip-rule="evenodd" d="M15.7798 36.4628C15.3405 36.0235 15.3405 35.3111 15.7798 34.8718L23.2045 27.4472C23.6438 27.0078 24.3561 27.0078 24.7954 27.4472L32.2201 34.8718C32.6594 35.3111 32.6594 36.0235 32.2201 36.4628L24.7954 43.8874C24.3561 44.3268 23.6438 44.3268 23.2045 43.8874L15.7798 36.4628ZM18.1663 35.6673L24 41.5009L29.8336 35.6673L24 29.8337L18.1663 35.6673Z" fill="#3C42B3"/>
<path fill-rule="evenodd" clip-rule="evenodd" d="M27.4471 24.7955C27.0078 24.3562 27.0078 23.6438 27.4471 23.2045L34.8717 15.7799C35.3111 15.3405 36.0234 15.3405 36.4627 15.7799L43.8873 23.2045C44.3267 23.6438 44.3267 24.3562 43.8873 24.7955L36.4627 32.2201C36.0234 32.6595 35.3111 32.6595 34.8717 32.2201L27.4471 24.7955ZM29.8336 24L35.6672 29.8336L41.5009 24L35.6672 18.1664L29.8336 24Z" fill="#3C42B3"/>
</svg>
